<?xml version="1.0" encoding="utf-8"?>
<!-- Generator: Adobe Illustrator 17.1.0, SVG Export Plug-In . SVG Version: 6.00 Build 0)  -->
<!DOCTYPE svg PUBLIC "-//W3C//DTD SVG 1.1//EN" "http://www.w3.org/Graphics/SVG/1.1/DTD/svg11.dtd">
<svg version="1.1" id="Layer_1" xmlns="http://www.w3.org/2000/svg" xmlns:xlink="http://www.w3.org/1999/xlink" x="0px" y="0px"
	 width="100px" height="97px" viewBox="0 0 100 97" enable-background="new 0 0 100 97" xml:space="preserve">
<g>
	<path fill="#008348" d="M93.2,63.9c0-1.8,1.3-3.1,3-3.1c1.7,0,3,1.4,3,3.1c0,1.8-1.3,3.1-3,3.1C94.5,67,93.2,65.7,93.2,63.9
		 M96.2,67.6c2,0,3.8-1.6,3.8-3.8c0-2.1-1.7-3.7-3.8-3.7c-2.1,0-3.8,1.6-3.8,3.7C92.4,66,94.2,67.6,96.2,67.6 M95.4,64.1h0.7
		l1.1,1.9H98l-1.2-1.9c0.6-0.1,1.1-0.4,1.1-1.2c0-0.9-0.5-1.2-1.5-1.2h-1.6V66h0.7V64.1z M95.4,63.6v-1.3h0.9c0.5,0,0.9,0.1,0.9,0.6
		c0,0.7-0.5,0.7-1,0.7H95.4z"/>
	<path fill="#EE3224" d="M41.3,34.8c0,0-0.5-0.3-0.5,0.3c0,0.5,0.2,5.1,0.3,5.4c0.1,0.3-0.1,0.5,0.6,0.6c0.7,0.1,4.3,0.2,4.9,0.3
		c0.6,0.2,0.3,0.1,0.3-0.4c0-0.5,0.4-3.7,1.6-5c0.6-0.6,0.5-0.7-0.1-0.7c-0.3,0-0.7,0.1-0.7,0.1C47.5,35.4,43.5,35.6,41.3,34.8"/>
	<path fill="#EE3224" d="M33.9,19.4c0.6-1.1,2.8-3,5.6-4.4c3.2-1.7,8.6-1.4,8.6-1.4c0.3-0.6,2.6-2.5,3.7-3.1c2-1.1,3.1-2.4,3.7-3
		c0.6-0.7,0.8-0.5,1.5,0c0.6,0.5,7.1,4.8,8.9,6c1.8,1.2,6.6,5.3,6,10.4c-0.6,5.1-3.6,7.8-8.9,10.8c-5.2,2.9-6.3,6.8-6.3,6.8
		c0.2,0.3,6-0.9,12.1-4.2c4.8-2.6,9.8-7.3,11.5-12.6c4.5-13.3-9.8-16.3-9.8-16.3c-2.8-7.4-12.4-5.2-12.4-5.2
		C47.2-1.4,40.4,6.6,40.4,6.6c-10.7,0.5-14.2,8.5-15.2,12.6c-0.4,1.5-0.3,2.5-0.3,2.5C28.7,18.8,33.9,19.4,33.9,19.4"/>
	<path fill="#EE3224" d="M37.6,18.4c-1.4,0.9-6,6.2-2.3,10.7c3.9,4.8,10.4,4.4,11,4.4c0.6,0,0.4-0.1,0.4-0.1
		c-0.3-0.3-8.1-4.3-6.5-10.3c1.6-5.8,6.3-6.2,7.3-6.8c0.8-0.5,0-0.6,0-0.6C42.4,14.7,38.7,17.8,37.6,18.4"/>
	<path fill="#EE3224" d="M45.8,18.9c-4.4,2.7,0.3,5.2,3.4,3.4c2.4-1.4,3.9-2.7,4.3-2.9c0.7-0.4,0-0.6,0-0.6
		C53,18.6,48.3,17.3,45.8,18.9"/>
	<path fill="#EE3224" d="M48.6,24.5c-3.9,1.2-6.1-1.8-6.1-1.8c-0.5,2-0.7,3.6,1.3,6.1c2,2.5,5.6,3.9,5.6,3.9
		c0.1-3.5,2.7-5.5,2.7-5.5c0.9-0.7,2.4-1.5,4.2-2.6c1-0.6,1.3-1.6,1.3-2.2c-0.1-1.3-1.4-2.1-1.7-2.3c-0.5-0.3-0.8,0.2-0.8,0.2
		S52.5,23.3,48.6,24.5"/>
	<path fill="#EE3224" d="M51.6,12.9c0,0-1.3,1-1.8,2.1c-0.5,1.2,1.1,1,1.7,1.2c0,0,3.5,0.4,6.5,3.3c3,2.9,1.1,5.5-0.3,6.3
		c-1.2,0.6-4.6,2.7-5.2,3.5c-0.8,1-1.4,3-1.2,3.2c0,0,0,0.1,0.2,0c1.1-0.6,4.3-3.1,5.9-3.8c1.5-0.6,7.6-3.9,6-8.9
		c-1.6-5-6.2-9.5-6.8-10.1c-0.4-0.4-0.5-0.2-0.7,0c-0.2,0.2-1.3,1.4-2.2,1.9C52.9,12,51.9,12.7,51.6,12.9"/>
	<path fill="#EE3224" d="M63.4,13.8c0,0-0.4-0.2-0.6-0.3c-0.3-0.2-0.6,0,0,0.8c0.6,0.8,2.4,3.3,2.6,5.3c0.2,2,1.4,5.1-4.4,9.1
		c-5.8,3.9-7.3,4.3-9.5,6.5c-2.1,2.3-3.1,5.8-2.7,6.7c0,0-0.2,0.1,0.3,0.3c0.5,0.2,3.1,1.4,4.2,2.2c0.8,0.6,0.5-0.1,0.6-0.4
		c0.1-0.3,1.1-6.3,6-9.5c4-2.6,9-5.2,9.9-9.2C70.6,22,69.5,17,63.4,13.8"/>
	<path fill="#EE3224" d="M56.4,43.3c0,0-0.3-0.1-0.3,0.4c0,0.5,0.2,3.2,2.4,5.3c1.2,1.2,2.4,2.2,3.1,2.5c0.9,0.4,0.9,0.4,1.3-0.3
		c0.4-0.7,2.6-3.5,2.6-7.2c0.1-3.6-0.1-3.3-0.5-3.1C64.5,41.2,61.2,42.6,56.4,43.3"/>
	<path fill="#EE3224" d="M67.8,39.9c0,0-0.5,0.1-0.4,0.5c0.1,0.4,0.7,4.2-0.5,7c-1.1,2.9-2.1,3.8-2.3,4.2c-0.2,0.4-0.4,0.4,0.2,0.5
		c0.6,0.1,3.8,0.6,6.9-0.7c3.3-1.3,6.6-4.4,8.2-7c1.6-2.8,4-6.1,7.6-6.6c0.6-0.1,0.4-1.2,0.3-1.9c0,0,0.3-1.7-1.8-4.8
		c-1.7-2.6-3.7-3.9-4.1-4.1c-0.3-0.2-0.5-0.3-0.7,0.1c0,0-1.3,2.7-3,4.6c-1.7,1.9-2.6,3.2-5.4,5.1C70.1,38.8,67.8,39.9,67.8,39.9"/>
	<path fill="#EE3224" d="M33.1,29.2c-0.8-1.3-1.5-4.5-0.5-6.9c0.1-0.2,0.3-0.6,0.3-0.8c0.1-0.3,0.2-0.4-0.4-0.5
		c-0.5-0.1-1.5,0-2.6,0.3c-1,0.2-4.9,0.9-7.7,6.7c-2.8,5.7-2.3,9.7-2.5,10.1c0,0,4.1,3,8.6,3.6c4.4,0.7,6.6,0.6,10.4-0.3
		c0,0,0.5,0.1,0.3-0.8c0,0-0.6-3.3-0.3-6.1c0.1-0.6-0.8-0.7-1.4-1.1C37.3,33.3,35.2,32.5,33.1,29.2"/>
	<path fill="#008348" d="M22.7,21.8c0,0,0.1-0.5-0.4-0.2c-0.5,0.4-6.9,5.3-9.6,9.6c-2.8,4.4-5.1,9.6-6.4,14.9c-0.3,1.2-0.3,1,0.9,0
		c2.1-1.7,4.4-4.3,10.3-6.2c0.5-0.2,0.3-0.8,0.3-2c0,0,0.2-7.6,4.1-13c0.2-0.3,0.5-0.5,0.5-0.8C22.6,23.3,22.7,21.8,22.7,21.8"/>
	<path fill="#008348" d="M7.5,49.1c-2,2.5-4.9,4.6-4.9,4.6c0.8,0.6,2.7,3.4,8.4,5.2c5.9,1.8,10.8,0.7,10.8,0.7
		c0.3-2.4,1.1-3.1,1.4-4.6c0.4-1.5,0.7-4.9-0.4-8.1c-1.1-3.1-2.5-5.1-2.5-5.1c-0.4-0.7-1.1-0.3-1.1-0.3
		C14.3,42.9,10.2,45.8,7.5,49.1"/>
	<path fill="#008348" d="M24.4,65c1,2.2,1.7,5.4,1.7,5.8c0,0.4,0.1,0.5,0.5,0.4c0.4-0.1,3,0.2,7-1.4c3.8-1.5,5.6-4.2,5.6-4.2
		c-1-2-0.6-6.1-0.6-6.1c-4.3,0.8-5.3,0.4-7.3,0c-3.6-0.9-5.8-4.3-5.8-4.3C23.5,57.5,23.4,62.7,24.4,65"/>
	<path fill="#008348" d="M5.8,59.2c0,0-0.3,0-0.2,0.6c0.1,0.6,1.8,11.3,8.8,19.4c5.1,5.9,10.4,7.7,15.5,8.7
		c2.1,0.4,8.3,0.6,13.5-1.2c6.6-2.3,10.9-7,12.6-9.3c2.1-3,4.7-8.1,4.8-12c0,0-5,0.6-7.6,1.5c-2.6,0.9-6.6,3.8-7.1,4.5
		c-0.4,0.6-0.6,0.5-1.3,0.2c-1-0.4-4.1-2.9-4.7-3.8c-0.2-0.3-1.4,1.1-2.7,2.1c-1.4,1-5.9,3.6-12.7,3.4c0,0-0.2-1.6-0.7-3.3
		c-0.5-1.7-2.3-5.7-2.2-8.2c0,0-5.1,0.5-8.7-0.2C9.7,60.9,7.8,60.4,5.8,59.2"/>
	<path fill="#008348" d="M26.9,89.7c0,0,0.9,0.7,5.3,2.5c4.7,1.9,9,2.2,9,2.2c4.6,0.9,11.2,0.2,14.3-0.5c3.5-0.8,6.1-1.4,10.3-3.7
		c4.6-2.5,7.5-4.5,11.8-9c4.2-4.5,6-8,8-12.9c2-5.1,2.4-8.7,2.4-8.7c0.1-0.3,0.5-1.7-0.2-1.6c-1.2,0.2-5.6,0.1-6,0.1
		c-0.4,0-0.4,0.1-0.4,0.4c0,0.3,0.2-0.8-0.4,3.6c-0.6,4.4-2.1,8.2-4.2,12.3c-2.3,4.5-7.2,9.6-10.2,11.8c-2.9,2-6.8,4.6-13.2,5.8
		c-6.4,1.2-11.7,0.6-11.7,0.6c-0.4-0.1-0.4-0.3-0.1-0.4c0.1,0,0.4-0.1,0.7-0.1c2.3-0.3,5.3-1,8.5-2.5c1.5-0.7,5.2-2.9,8.4-6
		c3.7-3.6,5.6-6.7,7.2-10.2c2.2-5.2,2.2-8,2.2-8c0.2-0.7-0.5-0.4-0.5-0.4c-1,0.3-3.5,0.4-3.5,0.4c-0.4,0.1-0.7,0-1,0
		c-0.2,0-0.3,0.1-0.4,0.7c-0.1,1.7-1.3,5.5-1.3,5.5C56.7,84.7,46.6,88,42.2,89.3c-6.8,2.1-15.3,0.2-15.3,0.2
		C26.5,89.5,26.9,89.7,26.9,89.7"/>
	<path fill="#008348" d="M78.9,57.9c0,0,0-0.7-0.4,0c-0.4,0.8-1.4,2.1-3.4,3.4c-1.9,1.3-3,2.1-4.1,2.6c-0.6,0.3-0.3,0.1-0.4,0.6
		c-0.1,0.5,0.2,3.7-2.4,9.4c-2.6,5.6-4.9,8-6.7,10.1c-1.8,2.1-5.1,4.4-6.3,5.1c-1.2,0.8-0.4,0.5,0,0.3c0.4-0.1,2.6-0.5,7.9-3.8
		c3.7-2.3,8-6,11.4-11.8c3.4-5.9,4.2-11.4,4.3-13C78.9,59.2,78.9,57.9,78.9,57.9"/>
	<path fill="#EE3224" d="M70.2,54c-4.3,1.1-9.9,0.4-17.1,0.8c-5.8,0.3-11,3.4-11.8,3.9c-0.8,0.5-0.9,0.3-0.8,4
		c0.1,3.6,3.2,6.1,4.1,6.6c0.9,0.5,0.6,0.6,1.1,0.1c0.7-0.7,2.2-2.1,5.4-3.4c6.2-2.5,9.5-2.3,14.4-2.7c3.1-0.3,7.7-1.6,10.8-5.5
		c3.1-3.9,2.5-6.9,2.7-8.2c0.1-1.1-0.5-0.3-0.5-0.3C77.4,50.3,74.7,52.8,70.2,54"/>
	<path fill="#EE3224" d="M23.4,42.1c0,0-0.7-0.4-0.3,0.4c0.4,0.8,1.7,3.8,2.2,6.1c0.6,2.8,1.3,7.6,7.5,9.3c5.2,1.5,8.8-2.1,13-3.6
		c4.2-1.4,9.4-1.8,13.2-1.5c0.7,0.1,0.3-0.5,0.1-0.7c-0.3-0.2-4.4-4.6-5.7-5.6c-1.3-1-5-3.9-11.2-3.6c-6.2,0.3-8.1,1.2-12,0.7
		C28,43.5,25.3,43,23.4,42.1"/>
	<path fill="#008348" d="M80.8,46.7c-0.3,0.6-0.2,0.5-0.1,1.2c0.6,4.7-0.4,6.4-0.7,7c-0.3,0.6-0.5,0.8,0.7,1
		c1.7,0.3,4.4,0.3,7.9-0.1c3.5-0.4,7.1-2,7.4-2.2c0.4-0.2,0.5,0-0.2-1c-1.3-1.7-2-4-3.4-6.9C91,42.8,88.6,41,88,40.3
		c-0.6-0.7-1.3-0.1-1.3-0.1C83.5,41.6,81.1,46.1,80.8,46.7"/>
	<path fill="#FFFFFF" d="M89.6,38.9c0,0.3,0.2,0.5,0.5,0.7c0,0,2.2,1.6,4,5c1.1,2,1.6,3.5,2.4,5.2c0.6,1.2,1.4,2.6,2.3,3.6
		c0.7,0.8,0,0.8-0.1,1c0,0-2.5,1.7-5.2,2.5c-2.7,0.8-3,0.5-3,1.3c0,0-1.2,8.2-4,13.9c-1.2,2.5-4.1,8.4-11.3,14.6
		c-4.8,4.1-12.1,8.2-19.6,9.4c0,0-8.4,2.1-18.2-0.2c-10.9-2.5-17.6-8-20.3-10.6c-2.5-2.3-7-6.3-10.6-15.1C3.3,62.8,3.5,60.2,3,57.6
		c0,0,0.2-0.3-0.3-0.7c-0.5-0.4-1.6-2.2-2.5-3.3c-0.3-0.4-0.2-0.6,0.1-0.7c0.3-0.2,2-1.5,2.6-2c0.6-0.5,0.7-0.4,0.8-1.4
		c0,0,1-8,4-13.8c3-5.8,4.7-7.8,8.1-11.3c2.2-2.3,6.2-4.8,7.3-5.6c0.5-0.4,0.2,0.2,0.6-1.1c0,0,1.8-6.3,6.7-9.7
		c3.2-2.2,4.3-2.5,9.3-3.2c0,0,3.2-3.5,7.9-4.4c4.7-0.9,7.4-0.4,10.4,0.8c0,0,3.9-1.1,8.9,0.9c0,0,2.9,1,4.7,4.3
		c0,0,6.4,1.5,9.7,6.8c1.9,3.1,2.3,6,1,11.3c-0.1,0.5-0.3,0.5,0.2,0.6c0,0,2.4,1.5,3.6,3c1.3,1.5,4.3,5.6,3.4,9.7
		C89.6,38.2,89.6,38.7,89.6,38.9 M41.3,34.9c0,0-0.5-0.3-0.5,0.3c0,0.5,0.2,5,0.3,5.4c0.1,0.3-0.1,0.5,0.6,0.6
		c0.7,0.1,4.3,0.2,4.9,0.3c0.6,0.2,0.3,0.1,0.3-0.4c0-0.5,0.4-3.7,1.6-5c0.6-0.6,0.5-0.7-0.1-0.7c-0.3,0-0.7,0.1-0.7,0.1
		C47.5,35.5,43.6,35.6,41.3,34.9 M34,19.5c0.6-1.1,2.8-3,5.6-4.4c3.2-1.7,8.6-1.4,8.6-1.4c0.3-0.6,2.6-2.5,3.7-3.1
		c2-1.1,3.1-2.4,3.7-3c0.6-0.7,0.8-0.5,1.5,0c0.6,0.5,7.1,4.8,8.9,6c1.8,1.2,6.6,5.3,6,10.4c-0.6,5.1-3.6,7.8-8.9,10.8
		c-5.2,2.9-6.3,6.8-6.3,6.8c0.2,0.3,6-0.9,12.1-4.2c4.8-2.6,9.8-7.3,11.5-12.6c4.4-13.3-9.8-16.3-9.8-16.3
		c-2.8-7.4-12.4-5.2-12.4-5.2C47.2-1.3,40.4,6.7,40.4,6.7c-10.7,0.5-14.2,8.5-15.2,12.6c-0.4,1.5-0.3,2.5-0.3,2.5
		C28.7,18.9,34,19.5,34,19.5 M37.6,18.5c-1.4,0.9-6,6.2-2.3,10.7c3.9,4.8,10.4,4.4,11,4.4c0.6,0,0.4-0.1,0.4-0.1
		c-0.3-0.3-8.1-4.3-6.5-10.3c1.6-5.8,6.3-6.2,7.3-6.8c0.9-0.5,0-0.6,0-0.6C42.4,14.8,38.8,17.8,37.6,18.5 M45.9,18.9
		c-4.4,2.7,0.3,5.2,3.4,3.4c2.4-1.4,3.9-2.7,4.3-2.9c0.7-0.4,0-0.6,0-0.6C53.1,18.6,48.4,17.4,45.9,18.9 M48.7,24.6
		c-3.9,1.2-6.1-1.8-6.1-1.8c-0.5,2-0.7,3.6,1.3,6.1c2.1,2.5,5.6,3.9,5.6,3.9c0.1-3.5,2.7-5.5,2.7-5.5c0.9-0.7,2.4-1.5,4.2-2.6
		c1-0.6,1.3-1.6,1.3-2.2c-0.1-1.3-1.4-2.1-1.7-2.3c-0.5-0.3-0.8,0.2-0.8,0.2S52.6,23.3,48.7,24.6 M51.7,12.9c0,0-1.3,1-1.8,2.1
		c-0.5,1.2,1.1,1,1.7,1.2c0,0,3.5,0.4,6.5,3.3c3,2.9,1.1,5.5-0.3,6.3c-1.2,0.6-4.6,2.7-5.2,3.5c-0.8,1-1.4,3-1.2,3.2
		c0,0,0,0.1,0.2,0c1.1-0.6,4.3-3.1,5.9-3.8c1.5-0.6,7.6-3.9,6-8.9c-1.6-5-6.2-9.5-6.8-10.1c-0.4-0.4-0.5-0.2-0.7,0
		c-0.2,0.2-1.3,1.4-2.2,1.9C53,12.1,52,12.8,51.7,12.9 M63.4,13.8c0,0-0.4-0.2-0.5-0.3c-0.3-0.2-0.6,0,0,0.8
		c0.6,0.8,2.4,3.3,2.6,5.3c0.2,2,1.4,5.1-4.4,9.1c-5.8,3.9-7.3,4.3-9.5,6.5c-2.1,2.3-3.1,5.8-2.7,6.7c0,0-0.2,0.1,0.3,0.3
		c0.5,0.2,3.1,1.4,4.2,2.2c0.8,0.6,0.5-0.1,0.6-0.4c0.1-0.3,1.1-6.3,6-9.5c4-2.6,9-5.2,9.9-9.2C70.7,22,69.5,17.1,63.4,13.8
		 M56.5,43.4c0,0-0.3-0.1-0.3,0.4c0,0.5,0.2,3.2,2.3,5.3c1.2,1.2,2.4,2.2,3.1,2.5c0.9,0.4,0.9,0.4,1.2-0.3c0.4-0.7,2.6-3.5,2.6-7.1
		c0-3.6-0.1-3.3-0.5-3.1C64.6,41.2,61.3,42.6,56.5,43.4 M67.8,39.9c0,0-0.5,0.1-0.4,0.5c0.1,0.4,0.7,4.2-0.5,7
		c-1.1,2.9-2.1,3.8-2.3,4.2c-0.2,0.4-0.4,0.4,0.2,0.5c0.6,0.1,3.8,0.6,6.9-0.7c3.3-1.3,6.6-4.4,8.2-7c1.6-2.8,4-6.1,7.6-6.6
		c0.6-0.1,0.4-1.2,0.3-1.9c0,0,0.3-1.7-1.8-4.8c-1.7-2.6-3.7-3.9-4.1-4.1c-0.3-0.2-0.5-0.3-0.7,0.1c0,0-1.3,2.7-3,4.6
		c-1.7,1.9-2.6,3.2-5.4,5.1C70.1,38.8,67.8,39.9,67.8,39.9 M33.2,29.3c-0.8-1.3-1.5-4.5-0.5-6.9c0.1-0.2,0.3-0.6,0.3-0.8
		c0.1-0.3,0.2-0.4-0.4-0.5c-0.5-0.1-1.5,0-2.6,0.3c-1,0.2-4.9,0.9-7.7,6.7c-2.8,5.7-2.3,9.7-2.5,10.1c0,0,4.1,2.9,8.6,3.6
		c4.4,0.7,6.6,0.6,10.4-0.3c0,0,0.5,0.1,0.3-0.8c0,0-0.6-3.3-0.3-6.1c0.1-0.6-0.8-0.7-1.4-1.1C37.4,33.4,35.2,32.5,33.2,29.3
		 M22.8,21.9c0,0,0.1-0.5-0.4-0.2c-0.5,0.4-6.9,5.3-9.6,9.6c-2.8,4.4-5.1,9.6-6.4,14.9c-0.3,1.2-0.3,1,0.9,0
		c2.1-1.7,4.4-4.3,10.3-6.2c0.5-0.2,0.3-0.8,0.3-2c0,0,0.2-7.6,4.1-13c0.2-0.3,0.5-0.5,0.5-0.8C22.6,23.4,22.8,21.9,22.8,21.9
		 M7.6,49.1c-2,2.5-4.9,4.6-4.9,4.6c0.8,0.6,2.7,3.4,8.4,5.2c5.9,1.8,10.8,0.7,10.8,0.7c0.3-2.4,1.1-3.1,1.4-4.6
		c0.4-1.5,0.7-4.9-0.4-8c-1.1-3.1-2.5-5.1-2.5-5.1c-0.4-0.7-1.1-0.3-1.1-0.3C14.4,43,10.2,45.9,7.6,49.1 M24.4,65.1
		c1,2.2,1.7,5.4,1.7,5.8c0,0.4,0.1,0.5,0.5,0.4c0.4-0.1,3,0.2,7-1.4c3.8-1.5,5.6-4.2,5.6-4.2c-1-2-0.6-6.1-0.6-6.1
		c-4.3,0.8-5.3,0.4-7.3,0c-3.6-0.9-5.8-4.3-5.8-4.3C23.5,57.5,23.4,62.8,24.4,65.1 M5.9,59.3c0,0-0.3,0-0.2,0.6
		c0.1,0.6,1.8,11.3,8.8,19.4C19.5,85.2,24.8,87,30,88c2.1,0.4,8.3,0.6,13.5-1.2c6.6-2.3,10.9-7,12.6-9.3c2.1-3,4.7-8.1,4.8-12
		c0,0-5,0.6-7.6,1.5c-2.6,0.9-6.6,3.8-7.1,4.5c-0.4,0.6-0.6,0.5-1.3,0.2c-1-0.4-4.1-2.9-4.7-3.8C40,67.6,38.8,69,37.5,70
		c-1.4,1-5.9,3.6-12.7,3.4c0,0-0.2-1.6-0.7-3.3c-0.5-1.7-2.3-5.7-2.2-8.2c0,0-5.1,0.5-8.7-0.2C9.8,60.9,7.9,60.5,5.9,59.3 M27,89.7
		c0,0,0.9,0.7,5.3,2.5c4.7,1.9,9,2.2,9,2.2c4.6,0.9,11.2,0.2,14.3-0.5c3.5-0.8,6.1-1.4,10.3-3.7c4.6-2.5,7.5-4.5,11.8-9.1
		c4.2-4.5,6-8,8-12.9c2-5.1,2.4-8.7,2.4-8.7c0.1-0.3,0.5-1.7-0.2-1.6c-1.2,0.2-5.6,0.1-6,0.1c-0.4,0-0.4,0.1-0.4,0.4
		c0,0.3,0.2-0.8-0.4,3.6c-0.6,4.4-2.1,8.2-4.2,12.3c-2.3,4.5-7.2,9.6-10.3,11.8c-2.9,2-6.8,4.6-13.2,5.8c-6.4,1.2-11.7,0.6-11.7,0.6
		c-0.4-0.1-0.4-0.3-0.1-0.4c0.1,0,0.4-0.1,0.7-0.1c2.3-0.3,5.3-1,8.5-2.5c1.5-0.7,5.2-2.9,8.4-6c3.7-3.6,5.6-6.7,7.2-10.2
		c2.2-5.2,2.2-8,2.2-8c0.2-0.7-0.5-0.4-0.5-0.4c-1,0.3-3.5,0.4-3.5,0.4c-0.4,0.1-0.7,0-1,0c-0.2,0-0.3,0.1-0.4,0.7
		c-0.1,1.7-1.3,5.5-1.3,5.5C56.8,84.7,46.7,88,42.2,89.4C35.4,91.5,27,89.5,27,89.5C26.6,89.6,27,89.7,27,89.7 M79,58
		c0,0,0-0.7-0.4,0c-0.4,0.8-1.4,2.1-3.4,3.4c-1.9,1.3-3,2.1-4.1,2.6c-0.6,0.3-0.3,0.1-0.4,0.6c-0.1,0.5,0.2,3.7-2.4,9.4
		c-2.6,5.6-4.9,8-6.7,10.1c-1.8,2.1-5.1,4.3-6.3,5.1c-1.2,0.7-0.4,0.5,0,0.3c0.4-0.1,2.6-0.5,7.9-3.8c3.7-2.3,8-5.9,11.4-11.8
		c3.4-5.9,4.2-11.4,4.3-13C79,59.3,79,58,79,58 M70.2,54c-4.3,1.1-9.9,0.4-17.1,0.8c-5.8,0.3-11,3.4-11.8,3.9
		c-0.8,0.5-0.9,0.3-0.8,4c0.1,3.6,3.2,6.1,4.1,6.6c0.9,0.5,0.6,0.6,1.1,0.1c0.7-0.7,2.2-2.2,5.4-3.4c6.2-2.5,9.5-2.3,14.4-2.7
		c3.1-0.3,7.7-1.6,10.8-5.5c3.1-3.9,2.5-6.9,2.7-8.2c0.1-1.1-0.5-0.3-0.5-0.3C77.5,50.3,74.7,52.9,70.2,54 M23.5,42.1
		c0,0-0.7-0.4-0.3,0.4c0.4,0.8,1.7,3.8,2.2,6.1c0.6,2.8,1.3,7.6,7.5,9.3c5.2,1.5,8.8-2.1,13-3.6C50,53,55.3,52.6,59,52.9
		c0.7,0.1,0.3-0.5,0.1-0.7c-0.3-0.2-4.4-4.6-5.7-5.6c-1.3-1-5-3.9-11.2-3.6c-6.2,0.3-8.1,1.2-12,0.7C28,43.5,25.4,43.1,23.5,42.1
		 M80.8,46.7c-0.3,0.6-0.2,0.5-0.1,1.2c0.6,4.7-0.4,6.4-0.7,7c-0.3,0.6-0.5,0.8,0.7,1c1.7,0.3,4.4,0.3,7.9-0.1
		c3.5-0.4,7.1-2,7.4-2.2c0.4-0.2,0.5,0-0.2-1c-1.3-1.7-2-4-3.4-6.9c-1.4-2.9-3.8-4.7-4.4-5.4c-0.6-0.7-1.3-0.1-1.3-0.1
		C83.6,41.7,81.1,46.1,80.8,46.7"/>
</g>
</svg>
